<?xml version="1.0" encoding="utf-8"?>
<!-- Generator: Adobe Illustrator 24.1.2, SVG Export Plug-In . SVG Version: 6.00 Build 0)  -->
<svg version="1.1"
	 id="svg5" inkscape:version="1.1.2 (b8e25be833, 2022-02-05)" sodipodi:docname="logo.svg" xmlns:inkscape="http://www.inkscape.org/namespaces/inkscape" xmlns:sodipodi="http://sodipodi.sourceforge.net/DTD/sodipodi-0.dtd" xmlns:svg="http://www.w3.org/2000/svg"
	 xmlns="http://www.w3.org/2000/svg" xmlns:xlink="http://www.w3.org/1999/xlink" x="0px" y="0px" viewBox="0 0 191 191.6"
	 style="enable-background:new 0 0 191 191.6;" xml:space="preserve">
<style type="text/css">
	.st0{fill:none;stroke:#000000;stroke-width:0.75;stroke-miterlimit:3;}
	.st1{fill:none;stroke:#000000;stroke-width:0.1701;stroke-miterlimit:11.3386;}
	.st2{fill:none;stroke:#000000;stroke-width:0.6066;stroke-miterlimit:11.3386;}
	.st3{fill:none;stroke:#000000;stroke-width:0.75;stroke-miterlimit:11.3386;}
	.st4{fill-rule:evenodd;clip-rule:evenodd;}
	.st5{fill:none;stroke:#000000;stroke-width:0.1751;stroke-miterlimit:11.3386;}
	.st6{fill:none;stroke:#000000;stroke-width:0.781;stroke-miterlimit:11.3386;}
	.st7{fill:none;stroke:#000000;stroke-width:0.7761;stroke-miterlimit:11.3386;}
	.st8{fill:none;stroke:#000000;stroke-width:0.7274;stroke-miterlimit:11.3386;}
	.st9{fill:none;stroke:#000000;stroke-width:0.7732;stroke-miterlimit:11.3386;}
	.st10{fill:none;stroke:#000000;stroke-width:0.1707;stroke-miterlimit:11.3386;}
	.st11{fill:none;stroke:#000000;stroke-width:0.1666;stroke-miterlimit:11.3386;}
	.st12{fill:none;stroke:#000000;stroke-width:0.1698;stroke-miterlimit:11.3386;}
	.st13{fill:none;stroke:#000000;stroke-width:0.1683;stroke-miterlimit:11.3386;}
	.st14{fill:none;stroke:#000000;stroke-width:0.1658;stroke-miterlimit:11.3386;}
	.st15{fill:none;stroke:#000000;stroke-width:0.1586;stroke-miterlimit:11.3386;}
	.st16{fill:none;stroke:#000000;stroke-width:0.1618;stroke-miterlimit:11.3386;}
	.st17{fill:none;stroke:#000000;stroke-width:0.1589;stroke-miterlimit:11.3386;}
	.st18{fill:none;stroke:#000000;stroke-width:0.1581;stroke-miterlimit:11.3386;}
	.st19{fill:none;stroke:#000000;stroke-width:0.1605;stroke-miterlimit:11.3386;}
	.st20{fill:none;stroke:#000000;stroke-width:0.1952;}
	.st21{fill:none;stroke:#000000;stroke-width:1.1339;stroke-miterlimit:11.3386;}
</style>
<sodipodi:namedview  bordercolor="#666666" borderopacity="1.0" id="namedview7" inkscape:current-layer="layer1" inkscape:cx="505.05102" inkscape:cy="497.27285" inkscape:document-units="mm" inkscape:pagecheckerboard="0" inkscape:pageopacity="0.0" inkscape:pageshadow="2" inkscape:window-height="1051" inkscape:window-maximized="1" inkscape:window-width="1920" inkscape:window-x="-9" inkscape:window-y="-9" inkscape:zoom="2.8284271" pagecolor="#ffffff" showgrid="false">
	</sodipodi:namedview>
<g id="layer1" inkscape:groupmode="layer" inkscape:label="Layer 1">
	<path id="path8873" sodipodi:nodetypes="ccsscscc" class="st0" d="M27.7,120.9h48.4c0,0,7.9-0.1,12.7,0c1.6,0,1,1.7,2.5,2
		c1.5,0.3,4.8,0.2,4.8,0.2s4,0.2,4.8-0.3c1.3-0.7,1.2-2,2.1-2c6.6,0,46.3,0,60.4,0.1"/>
	<path id="path45329-6" sodipodi:nodetypes="cassc" class="st1" d="M32.9,117.8c0,0,1.6,0.4,2.5,0.6c1.2,0.2,2.4,0.4,3.6,0.6
		c0.1,0,0.2,0,0.3,0c0.9,0.1,1.7,0.3,2.7,0.4"/>
	<path id="path8873-2" sodipodi:nodetypes="cscscccc" class="st2" d="M32.9,119.4c4.1,0,8.1,0,11.9,0.1c15.3,0.1,28.7,0.2,44.8,0
		c1.3,0,1.4,1.8,2.5,2c1.2,0.2,3.1,0.1,3.1,0.1s4,0.2,4.6-0.1c1-0.6,1.4-2,2.2-2c5.3,0,45.1-0.1,56.5-0.1"/>
	<path id="path8376" sodipodi:nodetypes="cc" class="st3" d="M27.7,120.9l15.3-38.1"/>
	
		<path id="path8376-8" inkscape:transform-center-x="-5.3908854" inkscape:transform-center-y="-1.0914062" sodipodi:nodetypes="cc" class="st3" d="
		M163.4,120.9l-15-38"/>
	<ellipse id="path8988" class="st4" cx="27.8" cy="120.9" rx="0.5" ry="0.4"/>
	<ellipse id="path8988-3" class="st4" cx="163.3" cy="120.9" rx="0.5" ry="0.4"/>
	<path id="path8376-1-8" class="st3" d="M33,112.6l13-32.2"/>
	<path id="path8376-1-8-8" sodipodi:nodetypes="cc" class="st3" d="M41.1,100.4l10.4-25.9"/>
	<path id="path8376-1-8-8-9" sodipodi:nodetypes="ccc" class="st3" d="M48.9,95.1l9.8-24.4l1.3-3.2"/>
	<path id="path8376-4" class="st3" d="M158.4,112.6l-13-32.2"/>
	<path id="path10709" class="st3" d="M33,112.6l0,6.9"/>
	<path id="path10711" sodipodi:nodetypes="caccsc" class="st3" d="M33,112.6c0,0,11.8,2.5,17.7,2.3c8.2-0.3,15.9-4.7,24.1-5
		c7.7-0.5,11.8-0.2,17.4,3.9c1,0.7,1.5,1.5,2,2.3c0.9,1.3,1.5,5.5,1.5,5.5"/>
	<path id="path10711-6" sodipodi:nodetypes="cacsscsc" class="st5" d="M33,113.2c0,0,11.8,2.5,17.7,2.3c8.3-0.3,16.3-4.7,24.5-5
		c4.3-0.2,7-0.3,9.9,0.4c1.2,0.3,2.4,0.7,3.6,1.3c1.2,0.6,2.6,1.3,3.7,2.3c1,0.9,1.5,1.4,2,2.1c0.9,1.2,1.4,4.8,1.4,4.8"/>
	<path id="path10709-8" class="st3" d="M158.4,112.6l0,6.9"/>
	<path id="path10711-0" sodipodi:nodetypes="caccsc" class="st3" d="M158.4,112.6c0,0-11.8,2.5-17.7,2.3c-8.2-0.3-15.9-4.7-24.1-5
		c-7.7-0.5-11.8-0.2-17.4,3.9c-1,0.7-1.5,1.5-2,2.3c-0.9,1.3-1.5,5.5-1.5,5.5"/>
	<path id="path13918-2" sodipodi:nodetypes="ccccssssscsc" class="st6" d="M95.6,121.4c0.8-1.5,1.1-3.6,2.1-4.8
		c2.2-2.9,4.4-3.4,6.9-4.4c4.3-1.2,7.8-1,11.8-0.8c0.5,0,2.6,0.3,4.2,0.6c1.1,0.2,2.1,0.4,3.3,0.8c1.9,0.6,4.6,1.4,7.5,2.3
		c3,0.9,6.3,1.5,9,1.5c6-0.1,12.2-0.9,15.6-1.8c0.4-0.1,1.4-0.4,1.7-0.5c0.1-0.1,0.1,0,0.4-0.2c0.4-0.3,0.3-0.9,0.2-1.6"/>
	<path id="path13918-2-4" sodipodi:nodetypes="ccccssssscsc" class="st6" d="M95.8,121.4c-0.8-1.5-1.1-3.6-2.1-4.8
		c-2.3-3-4.7-3.7-6.9-4.4c-4.3-1.2-7.8-1-11.8-0.8c-0.5,0-2.6,0.3-4.2,0.6c-1.1,0.2-2.1,0.4-3.3,0.8c-1.9,0.6-4.6,1.4-7.5,2.3
		c-3,0.9-6.3,1.5-9,1.5c-6-0.1-12.2-0.9-15.6-1.8c-0.4-0.1-1.4-0.4-1.7-0.5c-0.1-0.1-0.1,0-0.4-0.2c-0.4-0.3-0.3-0.9-0.2-1.6"/>
	<path id="path19072-5" sodipodi:nodetypes="csssc" class="st7" d="M141.6,116.6c-0.6,0.1-3.4,0.2-4,0.3c-7.8,0.7-17.4-0.7-24.9-0.4
		c-4.5,0.1-10.2,0.2-12.8,1.2c-1.7,0.6-2.9,2.3-4.1,3.8"/>
	<path id="path19072-5-9" sodipodi:nodetypes="csssc" class="st7" d="M49.9,116.6c0.6,0.1,3.4,0.2,4,0.3c7.8,0.7,17.4-0.7,24.9-0.4
		c4.5,0.1,10.2,0.2,12.8,1.2c1.7,0.6,2.9,2.3,4.1,3.8"/>
	<path id="path22034" sodipodi:nodetypes="csssc" class="st3" d="M41.1,100.4c0,0,12,1.6,18,1c7.4-0.7,21.4-5.6,32.4,6.5
		c0.4,0.4,1,1.3,1.3,2c2.8,6.1,2.9,11.5,2.9,11.5"/>
	<path id="path23525" sodipodi:nodetypes="cssc" class="st3" d="M48.9,95.1c0,0,17.7-3.5,26.5-1.8c6.5,1.2,12.3,4.2,16.5,10.9
		c3.1,5,3.8,17.2,3.8,17.2"/>
	<path id="path8376-1-8-8-9-4" sodipodi:nodetypes="cc" class="st3" d="M65.3,81.9c3.1-7.7,6.2-15.3,9.3-23"/>
	<path id="path24803" sodipodi:nodetypes="csssc" class="st3" d="M65.3,81.9c0,0,12.5,1,20.5,7.5c0,0,2,1.7,3.1,3.5
		c1.6,2.4,3,6,3.6,8c2.4,9.4,3.2,20.5,3.2,20.5"/>
	<path id="path26535" sodipodi:nodetypes="cc" class="st3" d="M46,80.4l3.1,0.4"/>
	<path id="path26537" sodipodi:nodetypes="cc" class="st3" d="M51.5,74.5l5.5,0"/>
	<path id="path26539" sodipodi:nodetypes="cac" class="st3" d="M60,67.6c0,0,4.5-0.5,6.8-0.6c1.6-0.1,4.9,0,4.9,0"/>
	<path id="path27129" sodipodi:nodetypes="cccc" class="st3" d="M74.6,58.9c4.7,1.8,14.3,9.4,17.3,14.1c4,5,3.8,10.4,3.8,10.4l0,38"
		/>
	<g id="g29739" transform="matrix(-1,0,0,1,265.21994,8.25281)">
		<path id="path8376-1-8-8-94" sodipodi:nodetypes="cc" class="st3" d="M114.9,92.2l10.4-25.9"/>
		<path id="path8376-1-8-8-9-5" sodipodi:nodetypes="ccc" class="st3" d="M122.7,86.8l9.8-24.4l1.3-3.2"/>
		<path id="path22034-1" sodipodi:nodetypes="csssc" class="st3" d="M114.9,92.2c0,0,12,1.6,18,1c7.4-0.7,21.4-5.6,32.4,6.5
			c0.4,0.4,1,1.3,1.3,2c2.8,6.1,2.9,11.5,2.9,11.5"/>
		<path id="path23525-7" sodipodi:nodetypes="cssc" class="st3" d="M122.7,86.8c0,0,17.7-3.5,26.5-1.8c6.5,1.2,12.3,4.2,16.5,10.9
			c3.1,5,3.8,17.2,3.8,17.2"/>
		<path id="path8376-1-8-8-9-4-6" sodipodi:nodetypes="cc" class="st3" d="M139.2,73.7c3.1-7.7,6.2-15.3,9.3-23"/>
		<path id="path24803-9" sodipodi:nodetypes="csssc" class="st3" d="M139.2,73.7c0,0,12.5,1,20.5,7.5c0,0,2,1.7,3.1,3.5
			c1.6,2.4,3,6,3.6,8c2.4,9.4,3.2,20.5,3.2,20.5"/>
		<path id="path26537-6" sodipodi:nodetypes="cc" class="st3" d="M125.4,66.3l5.5,0"/>
		<path id="path26539-7" sodipodi:nodetypes="cac" class="st3" d="M133.8,59.3c0,0,4.5-0.5,6.8-0.6c1.6-0.1,4.9,0,4.9,0"/>
		<path id="path27129-3" sodipodi:nodetypes="cccc" class="st3" d="M148.5,50.7c4.7,1.8,14.3,9.4,17.3,14.1c4,5,3.8,10.4,3.8,10.4
			l0,38"/>
		<path id="path22034-1-3" sodipodi:nodetypes="csssc" class="st8" d="M114.9,93.4c0,0,12,1.5,18,1c7.4-0.6,21.4-5.3,32.4,6.1
			c0.4,0.4,1,1.3,1.3,1.9c2.8,5.7,2.9,10.8,2.9,10.8"/>
		<path id="path22034-1-3-6" sodipodi:nodetypes="csssc" class="st8" d="M224.1,93.4c0,0-12,1.5-18,1c-7.4-0.6-21.4-5.3-32.4,6.1
			c-0.4,0.4-1,1.3-1.3,1.9c-2.8,5.7-2.9,10.8-2.9,10.8"/>
		<path id="path31574" class="st3" d="M224.2,92.2l0,1.2"/>
		<path id="path31576" class="st3" d="M114.9,92.2l0,1.2"/>
	</g>
	<path id="path29774" class="st3" d="M145.4,80.4l-2.7,0.5"/>
	<path id="path30308" class="st9" d="M148.3,83l-1.7,0"/>
	<path id="path30442" class="st3" d="M43.1,82.8l1.9,0"/>
	<path id="path10711-6-3" sodipodi:nodetypes="csscsscsc" class="st10" d="M33,113.6c0,0,11.8,2.3,17.7,2.1
		c6.9-0.2,13.4-3.3,20.1-4.4c1.4-0.2,2.9-0.5,4.4-0.5c4.3-0.2,7.1-0.3,10,0.4c1.2,0.3,2.1,0.6,3.3,1.2c1.2,0.6,2.8,1.5,3.9,2.5
		c1,0.9,1.5,1.4,2,2c0.9,1.1,1.4,4.6,1.4,4.6"/>
	<path id="path10711-6-9" sodipodi:nodetypes="cssscsscsc" class="st11" d="M33,114c0,0,11.8,2.2,17.7,2c3.5-0.1,7-1,10.5-1.9
		c1.7-0.4,3.5-1.1,5.2-1.5c3-0.7,5.8-1,8.8-1.1c4.3-0.2,7-0.3,9.9,0.4c1.2,0.3,2.4,0.6,3.6,1.2c1.2,0.5,2.6,1.2,3.7,2.1
		c1,0.8,1.5,1.3,2,1.9c0.9,1.1,1.4,4.4,1.4,4.4"/>
	<path id="path10711-6-8" sodipodi:nodetypes="cacsscsc" class="st5" d="M158.3,113.2c0,0-11.8,2.5-17.7,2.3
		c-8.3-0.3-16.3-4.7-24.5-5c-4.3-0.2-7-0.3-9.9,0.4c-1.2,0.3-2.4,0.7-3.6,1.3c-1.2,0.6-2.6,1.3-3.7,2.3c-1,0.9-1.5,1.4-2,2.1
		c-0.9,1.2-1.4,4.8-1.4,4.8"/>
	<path id="path10711-6-3-8" sodipodi:nodetypes="csscsscsc" class="st10" d="M158.4,113.6c0,0-11.8,2.3-17.7,2.1
		c-6.9-0.2-13.4-3.3-20.1-4.4c-1.4-0.2-2.9-0.5-4.4-0.5c-4.3-0.2-7.1-0.3-10,0.4c-1.2,0.3-2.1,0.6-3.3,1.2c-1.2,0.6-2.8,1.5-3.9,2.5
		c-1,0.9-1.5,1.4-2,2c-0.9,1.1-1.4,4.6-1.4,4.6"/>
	<path id="path10711-6-9-6" sodipodi:nodetypes="cssscsscsc" class="st11" d="M158.3,114c0,0-11.8,2.2-17.7,2c-3.5-0.1-7-1-10.5-1.9
		c-1.7-0.4-3.5-1.1-5.2-1.5c-3-0.7-5.8-1-8.8-1.1c-4.3-0.2-7-0.3-9.9,0.4c-1.2,0.3-2.4,0.6-3.6,1.2c-1.2,0.5-2.6,1.2-3.7,2.1
		c-1,0.8-1.5,1.3-2,1.9c-0.9,1.1-1.4,4.4-1.4,4.4"/>
	<path id="path22034-19" sodipodi:nodetypes="csssc" class="st1" d="M41,101c0,0,12,1.5,18,1c7.4-0.6,21.4-5.4,32.4,6.3
		c0.4,0.4,1,1.3,1.3,1.9c2.8,5.9,2.9,11.1,2.9,11.1"/>
	<path id="path22034-19-9" sodipodi:nodetypes="csssc" class="st1" d="M150.3,101c0,0-12,1.5-18,1c-7.4-0.6-21.4-5.4-32.4,6.3
		c-0.4,0.4-1,1.3-1.3,1.9c-2.8,5.9-2.9,11.1-2.9,11.1"/>
	<path id="path36157" sodipodi:nodetypes="cssssssc" class="st12" d="M32.6,115c0.3,0.1,0-0.2,0.3-0.1c2.2,0.8,6.1,1.4,8.6,1.8
		c1,0.1,4.6,0.5,7.3,0.6c3.1,0.2,8.3,0.6,11.2,0.5c7.4-0.3,14-0.6,15.9-0.7c4.4-0.1,12.2,0.2,15.3,1.1c1.3,0.4,4.3,3.2,4.3,3.2"/>
	<path id="path36157-1" sodipodi:nodetypes="cssssssc" class="st13" d="M32.7,115.3c0.3,0.1,0-0.2,0.3-0.1c2.2,0.8,6.1,1.4,8.6,1.8
		c1,0.1,4.6,0.5,7.3,0.6c3.1,0.2,8.3,0.6,11.2,0.5c7.4-0.3,13.9-0.6,15.8-0.7c4.4-0.1,12.1,0.2,15.2,1.1c1.3,0.4,4.3,3.2,4.3,3.2"/>
	<path id="path36157-0" sodipodi:nodetypes="cssssssc" class="st14" d="M32.8,115.7c0.3,0.1,0-0.2,0.3-0.1c2.1,0.8,6,1.4,8.5,1.7
		c1,0.1,4.6,0.5,7.2,0.6c3.1,0.2,8.2,0.6,11.1,0.5c7.3-0.3,13.8-0.6,15.7-0.6c4.4-0.1,12.1,0.2,15.1,1.1c1.3,0.4,4.2,3.1,4.2,3.1"/>
	<path id="path36157-0-1" sodipodi:nodetypes="cssssssc" class="st15" d="M32.9,116.2c0.3,0.1,0-0.2,0.3-0.1c2.1,0.7,6,1.3,8.5,1.6
		c0.9,0.1,4.5,0.5,7.2,0.6c3,0.1,8.1,0.6,11,0.5c7.3-0.3,13.8-0.7,15.7-0.7c4.3-0.1,12,0.2,15,1c1.3,0.3,4.2,2.9,4.2,2.9"/>
	<path id="path36157-2" sodipodi:nodetypes="cssssssc" class="st16" d="M32.8,116.5c0.3,0.1,0-0.2,0.3-0.1c2.1,0.7,6,1.3,8.4,1.7
		c0.9,0.1,4.5,0.4,7.1,0.6c3,0.2,8.1,0.6,11,0.5c7.2-0.3,13.6-0.6,15.5-0.6c4.3-0.1,12.2,0.1,15.2,0.9c0.8,0.2,2.5,1.5,3.4,2.3"/>
	<path id="path36157-1-0" sodipodi:nodetypes="csssssssc" class="st17" d="M32.9,116.9c0.3,0.1,0-0.2,0.3-0.1
		c2.1,0.7,5.9,1.3,8.4,1.6c0.9,0.1,4.5,0.4,7.1,0.6c3,0.1,8,0.6,10.9,0.5c7.2-0.3,13.5-0.6,15.4-0.6c3.1,0,8.8,0,12.4,0.4
		c0.5,0,2,0.1,3.2,0.7c1.2,0.5,2.1,1.3,2.5,1.7"/>
	<path id="path36157-0-8" sodipodi:nodetypes="csssssssc" class="st18" d="M32.8,117.2c0.3,0.1,0-0.2,0.3-0.1
		c2.1,0.7,5.9,1.3,8.4,1.6c0.9,0.1,4.5,0.4,7.1,0.6c3,0.1,8.1,0.6,10.9,0.5c7.2-0.3,13.5-0.6,15.4-0.6c1.5,0,3.6-0.1,5.6,0
		c1,0,2.5,0.1,3.5,0.1c1.5,0.1,2.4,0.2,3.7,0.5"/>
	<path id="path45329" sodipodi:nodetypes="caasc" class="st1" d="M33.1,117.5c0,0,1.6,0.4,2.5,0.6c1.2,0.2,2.4,0.4,3.6,0.6
		c1,0.1,1.9,0.3,3,0.4c1.1,0.1,3.2,0.3,3.2,0.3"/>
	<path id="path45329-6-6" sodipodi:nodetypes="casc" class="st1" d="M33.1,118.3c0,0,1.8,0.4,2.7,0.6c1.2,0.2,2.4,0.4,3.6,0.6
		c0.1,0,0,0.1,0.1,0.1"/>
	<path id="path45329-6-4" sodipodi:nodetypes="cac" class="st1" d="M32.8,118.5c0,0,1.7,0.4,2.5,0.6c1.2,0.2,2.3,0.3,3.5,0.5"/>
	<path id="path45329-6-4-1" sodipodi:nodetypes="cc" class="st1" d="M33.2,118.9c0,0,1.7,0.4,2.5,0.6"/>
	<path id="path45329-6-3" sodipodi:nodetypes="cassc" class="st1" d="M158.7,117.8c0,0-1.5,0.4-2.2,0.6c-1.2,0.2-2.4,0.4-3.6,0.6
		c-0.1,0-0.2,0-0.3,0c-0.9,0.1-1.7,0.3-2.7,0.4"/>
	<path id="path36157-13" sodipodi:nodetypes="csssssc" class="st12" d="M158.6,114.8c-2.2,0.8-5.9,1.4-8.5,1.8
		c-1,0.1-4.6,0.5-7.3,0.6c-3.1,0.2-8.3,0.6-11.2,0.5c-7.4-0.3-14-0.6-15.9-0.7c-4.4-0.1-12.2,0.2-15.3,1.1c-1.3,0.4-4.3,3.2-4.3,3.2
		"/>
	<path id="path36157-1-08" sodipodi:nodetypes="csssssc" class="st13" d="M158.6,115.3c-2.2,0.8-5.9,1.3-8.4,1.6
		c-1,0.1-4.6,0.5-7.3,0.6c-3.1,0.2-8.3,0.6-11.2,0.5c-7.4-0.3-13.9-0.6-15.8-0.7c-4.4-0.1-12.1,0.2-15.2,1.1
		c-1.3,0.4-4.3,3.2-4.3,3.2"/>
	<path id="path36157-0-83" sodipodi:nodetypes="csssssc" class="st14" d="M158.6,115.5c-2.1,0.8-6,1.4-8.5,1.7
		c-1,0.1-4.6,0.5-7.2,0.6c-3.1,0.2-8.2,0.6-11.1,0.5c-7.3-0.3-13.8-0.6-15.7-0.6c-4.4-0.1-12.1,0.2-15.1,1.1
		c-1.3,0.4-4.2,3.1-4.2,3.1"/>
	<path id="path36157-0-1-9" sodipodi:nodetypes="csssssc" class="st15" d="M158.6,116c-2.1,0.7-6,1.3-8.5,1.6
		c-0.9,0.1-4.5,0.5-7.2,0.6c-3,0.1-8.1,0.6-11,0.5c-7.3-0.3-13.8-0.7-15.7-0.7c-4.3-0.1-12,0.2-15,1c-1.3,0.3-4.2,2.9-4.2,2.9"/>
	<path id="path36157-2-6" sodipodi:nodetypes="csssssc" class="st16" d="M158.7,116.3c-2.1,0.7-6,1.3-8.4,1.7
		c-0.9,0.1-4.5,0.4-7.1,0.6c-3,0.2-8.1,0.6-11,0.5c-7.2-0.3-13.6-0.6-15.5-0.6c-4.3-0.1-12.2,0.1-15.2,0.9c-0.8,0.2-2.5,1.5-3.4,2.3
		"/>
	<path id="path36157-1-0-5" sodipodi:nodetypes="cssssssc" class="st19" d="M158.5,116.7c-2.1,0.7-5.9,1.3-8.4,1.6
		c-0.9,0.1-4.5,0.4-7.1,0.6c-3,0.2-8.1,0.6-10.9,0.5c-7.2-0.3-13.5-0.6-15.4-0.6c-3.1,0-8.9,0-12.4,0.4c-0.5,0.1-2,0.1-3.2,0.7
		c-1.2,0.5-2.1,1.3-2.5,1.7"/>
	<path id="path36157-0-8-0" sodipodi:nodetypes="cssssssc" class="st18" d="M158.6,117c-2.1,0.7-5.9,1.3-8.4,1.6
		c-0.9,0.1-4.5,0.4-7.1,0.6c-3,0.1-8.1,0.6-10.9,0.5c-7.2-0.3-13.5-0.6-15.4-0.6c-1.5,0-3.6-0.1-5.6,0c-1,0-2.5,0.1-3.5,0.1
		c-1.5,0.1-2.4,0.2-3.7,0.5"/>
	<path id="path45329-2" sodipodi:nodetypes="caasc" class="st1" d="M158.6,117.4c0,0-1.6,0.4-2.5,0.6c-1.2,0.2-2.4,0.4-3.6,0.6
		c-1,0.1-1.9,0.3-3,0.4c-1.1,0.1-3.2,0.3-3.2,0.3"/>
	<path id="path45329-6-6-6" sodipodi:nodetypes="casc" class="st1" d="M158.6,118.2c0,0-1.8,0.4-2.7,0.6c-1.2,0.2-2.4,0.4-3.6,0.6
		c-0.1,0,0,0.1-0.1,0.1"/>
	<path id="path45329-6-4-1-9" sodipodi:nodetypes="cc" class="st1" d="M158.6,118.8c0,0-1.7,0.4-2.5,0.6"/>
	<path id="path49859" sodipodi:nodetypes="ccc" class="st1" d="M154.9,119.3l1.3-0.2l2.2-0.5"/>
	<path id="path50639" sodipodi:nodetypes="cac" class="st1" d="M99.1,121.6c0,0,0.6-0.5,0.9-0.7c0.3-0.2,1-0.6,1-0.6"/>
	<circle id="path51522" cx="32.9" cy="119.4" r="0.3"/>
	<circle id="path51522-8" cx="32.9" cy="112.5" r="0.3"/>
	
		<circle id="path51522-4" inkscape:transform-center-x="0.08371582" inkscape:transform-center-y="0.080615234" cx="41.1" cy="101.7" r="0.3">
	</circle>
	<circle id="path51522-40" cx="41" cy="100.4" r="0.3"/>
	<circle id="path51522-6" cx="43" cy="82.8" r="0.3"/>
	<circle id="path51522-69" cx="45.9" cy="80.3" r="0.3"/>
	<circle id="path51522-3" cx="51.5" cy="74.5" r="0.3"/>
	<circle id="path51522-9" cx="59.9" cy="67.5" r="0.3"/>
	<circle id="path51522-1" cx="48.8" cy="95.1" r="0.3"/>
	<circle id="path51522-92" cx="65.3" cy="82" r="0.3"/>
	<circle id="path51522-15" cx="74.6" cy="58.9" r="0.3"/>
	<circle id="path51522-30" cx="126.1" cy="82" r="0.3"/>
	<circle id="path51522-0" cx="116.8" cy="58.9" r="0.3"/>
	<circle id="path51522-63" cx="131.5" cy="67.5" r="0.3"/>
	<circle id="path51522-5" cx="139.9" cy="74.5" r="0.3"/>
	<circle id="path51522-11" cx="145.4" cy="80.3" r="0.3"/>
	<circle id="path51522-08" cx="148.4" cy="82.9" r="0.3"/>
	<circle id="path51522-2" cx="158.5" cy="119.4" r="0.3"/>
	<circle id="path51522-56" cx="158.5" cy="112.6" r="0.3"/>
	<circle id="path51522-59" cx="150.3" cy="100.4" r="0.3"/>
	<circle id="path51522-86" cx="150.3" cy="101.7" r="0.3"/>
	<circle id="path51522-7" cx="142.6" cy="95.1" r="0.3"/>
	<g id="g57396" transform="matrix(1.3819117,0,0,1.7090089,-47.8572,-75.609602)">
		<path id="path52396" sodipodi:nodetypes="cssaaasc" class="st20" d="M103.9,71.6c0,0,0.6-0.8,1.5-1.5c0.5-0.4,1.1-0.8,1.6-1
			c1.1-0.5,3.1-0.9,4.4-0.1c0.8,0.5,1.4,1.5,1.4,2.5c0,0.9-0.6,1.9-1.4,2.4c-1.2,0.7-3,0.6-4.2,0.1C106,73.3,103.9,71.6,103.9,71.6"
			/>
		<path id="path52396-7" sodipodi:nodetypes="cssaaasc" class="st20" d="M103.9,71.6c0,0-0.6-0.8-1.5-1.5c-0.5-0.4-1.1-0.8-1.6-1
			c-1.1-0.5-3.1-0.9-4.4-0.1c-0.8,0.5-1.4,1.5-1.4,2.5c0,0.9,0.6,1.9,1.4,2.4c1.2,0.7,3,0.6,4.2,0.1
			C101.8,73.3,103.9,71.6,103.9,71.6"/>
	</g>
	<circle id="path57783" class="st21" cx="95.2" cy="95.9" r="85.4"/>
	<circle id="path57783-0" class="st21" cx="95.2" cy="95.9" r="85.4"/>
	<circle id="path57783-6" class="st21" cx="95.5" cy="96.3" r="93.6"/>
</g>
</svg>
